<svg width="14" height="14" viewBox="0 0 14 14" fill="none" xmlns="http://www.w3.org/2000/svg">
<path d="M1.68993 12.89C1.30334 13.2766 0.676535 13.2766 0.289935 12.89C-0.0966641 12.5034 -0.096664 11.8765 0.289935 11.49L4.48283 7.29706C4.87335 6.90653 4.87335 6.27337 4.48283 5.88284L0.289935 1.68995C-0.0966644 1.30335 -0.0966641 0.67655 0.289935 0.289951C0.676535 -0.0966488 1.30334 -0.0966487 1.68994 0.289951L5.88283 4.48284C6.27335 4.87337 6.90652 4.87337 7.29704 4.48284L11.4899 0.28995C11.8765 -0.0966492 12.5033 -0.0966488 12.8899 0.289951C13.2765 0.67655 13.2765 1.30335 12.8899 1.68995L8.69704 5.88284C8.30652 6.27337 8.30652 6.90653 8.69704 7.29706L12.8899 11.49C13.2765 11.8766 13.2765 12.5034 12.8899 12.89C12.5033 13.2766 11.8765 13.2766 11.4899 12.89L7.29704 8.69706C6.90652 8.30653 6.27335 8.30653 5.88283 8.69706L1.68993 12.89Z" fill="white"/>
</svg>
